<svg width="210mm" height="297mm" viewBox="0 0 210 297" version="1.1" id="svg1" xml:space="preserve"
  inkscape:version="1.4 (86a8ad7, 2024-10-11)" sodipodi:docname="inomeado.svg"
  xmlns:inkscape="http://www.inkscape.org/namespaces/inkscape"
  xmlns:sodipodi="http://sodipodi.sourceforge.net/DTD/sodipodi-0.dtd" xmlns:xlink="http://www.w3.org/1999/xlink"
  xmlns="http://www.w3.org/2000/svg" xmlns:svg="http://www.w3.org/2000/svg">

  <g inkscape:label="Camada 1" inkscape:groupmode="layer" id="layer1">
    
    <path style="fill:#000000"
      d="m 64.822921,186.44302 c 0,-0.0485 1.310002,-1.20939 2.911117,-2.57969 l 2.911117,-2.49146 -1.12518,-0.17882 c -0.618849,-0.0984 -1.780023,-0.18773 -2.580388,-0.1986 -2.467406,-0.0335 -10.812862,-1.06341 -14.119083,-1.74239 -6.745665,-1.3853 -10.808226,-3.09815 -14.720499,-6.20643 l -0.661458,-0.52553 8.202083,-0.0228 c 7.723765,-0.0215 8.148079,-0.0474 7.276041,-0.44415 -4.746674,-2.15968 -6.312412,-3.03885 -7.397275,-4.15359 l -1.179568,-1.21206 h 19.881888 19.881888 l 1.538303,-2.30684 c 0.846067,-1.26876 2.822502,-3.6379 4.392078,-5.26475 l 2.853774,-2.95792 -4.439326,-3.66493 c -2.441629,-2.01571 -4.648562,-3.87329 -4.904295,-4.12795 -1.031981,-1.02766 -0.684405,-1.53804 3.966802,-5.82484 2.437474,-2.24651 5.711693,-5.35678 7.276041,-6.91171 l 2.844271,-2.82715 -0.0039,-3.09914 c -0.0045,-3.53846 -0.354827,-5.3099 -1.746045,-8.82805 -0.889534,-2.24949 -0.938152,-2.50615 -0.591651,-3.12349 0.288977,-0.51485 0.588864,-0.6726 1.278589,-0.6726 1.112616,0 1.517288,0.61802 2.781085,4.24735 0.487761,1.40073 0.955581,2.61553 1.039591,2.69955 0.19476,0.19475 0.1602,-2.88194 -0.0929,-8.26982 -0.225,-4.78999 -0.0741,-5.42396 1.29117,-5.42396 0.94837,0 1.58934,0.60403 1.63446,1.54026 0.0188,0.38978 0.11143,2.49464 0.20587,4.67745 0.19023,4.39683 0.0381,4.35079 1.64241,0.49717 0.88242,-2.11968 1.50416,-2.56715 2.76728,-1.99163 0.48168,0.21947 0.64195,0.50047 0.64195,1.12551 0,1.11131 -2.40071,6.91372 -5.35247,12.93666 l -2.39887,4.89479 -4.524849,4.52245 c -2.488669,2.48734 -5.565937,5.46898 -6.838372,6.62586 l -2.313518,2.10342 4.219371,3.49121 4.219371,3.49121 1.335293,-0.83006 c 0.734411,-0.45653 1.335293,-0.8568 1.335293,-0.88949 0,-0.0327 -1.101328,-0.99689 -2.447396,-2.14267 -3.254517,-2.77027 -3.638021,-3.1647 -3.638021,-3.74163 0,-0.98266 0.675391,-1.3931 3.571875,-2.17068 3.767655,-1.01144 8.581353,-2.73756 10.528403,-3.77533 1.93941,-1.03369 2.55652,-1.77334 3.6304,-4.35129 0.7603,-1.82519 0.91311,-2.62407 1.29947,-6.79382 0.37886,-4.0889 0.5077,-4.77653 0.95645,-5.10503 0.61382,-0.44932 1.68706,-0.26028 2.19179,0.38606 0.34881,0.44668 0.33231,1.23455 -0.12791,6.10806 -0.1131,1.19774 -0.0748,1.63829 0.1315,1.51082 0.16013,-0.099 1.08246,-1.24677 2.04961,-2.55066 1.48805,-2.00616 1.87293,-2.37072 2.50287,-2.37072 0.90622,0 1.57596,0.61672 1.57596,1.45119 0,0.64869 -2.05715,3.58688 -4.95812,7.08162 -0.93617,1.12779 -1.63504,2.05052 -1.55304,2.05052 0.082,0 0.93988,-0.29765 1.90641,-0.66146 2.75029,-1.0352 3.87714,-0.7974 3.87714,0.81819 0,1.16817 0.40949,0.9734 -9.98802,4.75087 -6.78759,2.46597 -11.624445,4.08823 -12.189229,4.08823 -0.655744,0 -0.394965,0.32626 1.699863,2.12666 1.913426,1.64449 1.959996,1.6667 2.778126,1.32528 2.57176,-1.07325 7.79542,-2.6724 10.09249,-3.08966 3.71672,-0.67515 12.67,-0.69493 15.38728,-0.034 6.67063,1.62252 12.14808,4.81593 17.63086,10.279 l 3.12023,3.10901 2.05831,-1.03022 c 4.0486,-2.02639 8.45452,-2.38944 11.89733,-0.98036 l 1.67526,0.68566 4.37717,-2.63475 c 2.40744,-1.44911 4.41052,-2.60006 4.4513,-2.55766 0.0408,0.0424 -0.50345,2.62459 -1.20939,5.73821 l -1.28354,5.66113 0.48559,0.95346 c 1.78962,3.51385 1.76967,7.95 -0.0519,11.53678 -1.11219,2.19001 -3.78863,5.27917 -6.28018,7.24863 l -1.37358,1.08575 h -49.05644 c -26.981048,0 -49.056449,-0.0397 -49.056449,-0.0882 z"
      id="path1" />
  </g>
</svg>